<mxfile host="app.diagrams.net" modified="2023-12-17T10:21:52.454Z" agent="Mozilla/5.0 (X11; Ubuntu; Linux x86_64; rv:109.0) Gecko/20100101 Firefox/119.0" version="22.1.11" etag="qlrGHtvGrnn9CAk0i5jf" type="github">
  <diagram name="Seite-1" id="AiSrOBuyuefX2J9P1v7X">
    <mxGraphModel>
      <root>
        <mxCell id="0" />
        <mxCell id="1" parent="0" />
      </root>
    </mxGraphModel>
  </diagram>
</mxfile>
